<svg xmlns="http://www.w3.org/2000/svg" width="24" height="24" fill="#000" enable-background="new 0 0 24 24" viewBox="0 0 24 24"><g><path fill="none" d="M0,0h24v24H0V0z"/></g><g><g><rect width="2" height="3" x="11" y="19"/><rect width="3" height="2" x="2" y="11"/><rect width="3" height="2" x="19" y="11"/><rect width="1.99" height="3" x="16.66" y="16.66" transform="matrix(0.7071 -0.7071 0.7071 0.7071 -7.6665 17.8014)"/><rect width="3" height="1.99" x="4.85" y="17.16" transform="matrix(0.7071 -0.7071 0.7071 0.7071 -10.9791 9.8041)"/><path d="M15,8.02V3H9v5.02C7.79,8.94,7,10.37,7,12c0,2.76,2.24,5,5,5s5-2.24,5-5C17,10.37,16.21,8.94,15,8.02z M11,5h2v2.1 C12.68,7.04,12.34,7,12,7s-0.68,0.04-1,0.1V5z"/></g></g></svg>